<?xml version="1.0" encoding="UTF-8"?>
<svg id="Calque_1" xmlns="http://www.w3.org/2000/svg" version="1.1" viewBox="0 0 30 30">
  <!-- Generator: Adobe Illustrator 29.0.0, SVG Export Plug-In . SVG Version: 2.1.0 Build 186)  -->
  <defs>
    <style>
      .st0 {
        fill: #17191f;
      }
    </style>
  </defs>
  <path class="st0" d="M22,29.8h-14c-4.3,0-7.8-3.5-7.8-7.8v-14C.2,3.7,3.7.2,8,.2h14c4.3,0,7.8,3.5,7.8,7.8v14c0,4.3-3.5,7.8-7.8,7.8ZM8,1.8c-3.4,0-6.2,2.8-6.2,6.2v14c0,3.4,2.8,6.2,6.2,6.2h14c3.4,0,6.2-2.8,6.2-6.2v-14c0-3.4-2.8-6.2-6.2-6.2h-14Z"/>
  <path class="st0" d="M15.1,21.3c-.3,0-.7,0-1,0-1.3-.2-2.5-.8-3.5-1.8s-1.6-2.2-1.8-3.5c-.2-1.3,0-2.7.6-3.9.6-1.2,1.6-2.2,2.7-2.8,1.2-.6,2.5-.8,3.9-.6,1.4.2,2.6.8,3.6,1.8s1.6,2.2,1.8,3.6h0c.2,1.3,0,2.7-.6,3.9-.6,1.2-1.6,2.1-2.8,2.7-.9.4-1.9.7-2.8.7ZM15.1,10.1c-.8,0-1.5.2-2.2.5-.9.5-1.6,1.2-2.1,2.1-.5.9-.6,1.9-.5,3s.6,1.9,1.4,2.7,1.6,1.2,2.7,1.4c1,.2,2,0,3-.5.9-.5,1.7-1.2,2.1-2.1.5-.9.6-1.9.5-2.9h0c-.2-1-.6-2-1.4-2.7s-1.7-1.2-2.7-1.4c-.2,0-.5,0-.7,0Z"/>
  <path class="st0" d="M24.8,7c0,.4,0,.9-.2,1.3-.2.4-.5.7-.9.9-.4.2-.8.3-1.3.2-.4,0-.8-.3-1.2-.6-.3-.3-.5-.7-.6-1.2,0-.4,0-.9.2-1.3.2-.4.5-.7.9-.9.4-.2.8-.3,1.3-.2.4,0,.9.3,1.2.6.3.3.5.7.6,1.2Z"/>
</svg>