<?xml version="1.0" encoding="UTF-8"?>
<svg id="Calque_1" xmlns="http://www.w3.org/2000/svg" version="1.1" viewBox="0 0 30 24">
  <!-- Generator: Adobe Illustrator 29.0.0, SVG Export Plug-In . SVG Version: 2.1.0 Build 186)  -->
  <defs>
    <style>
      .st0 {
        fill: #17191f;
      }
    </style>
  </defs>
  <path class="st0" d="M25.9,23.8H4.1c-2.1,0-3.9-1.7-3.9-3.9V4.1C.2,2,2,.2,4.1.2h21.8c2.1,0,3.9,1.7,3.9,3.9v15.7c0,2.1-1.7,3.9-3.9,3.9ZM4.1,1.8c-1.3,0-2.4,1.1-2.4,2.4v15.7c0,1.3,1.1,2.4,2.4,2.4h21.8c1.3,0,2.4-1.1,2.4-2.4V4.1c0-1.3-1.1-2.4-2.4-2.4H4.1Z"/>
  <path class="st0" d="M15,14c-.1,0-.3,0-.4-.1L.6,5.3c-.4-.2-.5-.7-.2-1,.2-.4.7-.5,1-.2l13.6,8.3,13.6-8.3c.4-.2.8-.1,1,.2.2.4.1.8-.2,1l-14,8.6c-.1,0-.3.1-.4.1Z"/>
</svg>